<svg width="13" height="13" viewBox="0 0 13 13" fill="none" xmlns="http://www.w3.org/2000/svg">
<path d="M11.9168 6.50004C11.9168 3.51004 9.49016 1.08337 6.50016 1.08337C3.51016 1.08337 1.0835 3.51004 1.0835 6.50004C1.0835 9.49004 3.51016 11.9167 6.50016 11.9167" stroke="white" stroke-linecap="round" stroke-linejoin="round"/>
<path d="M4.33352 1.625H4.87518C3.81895 4.78918 3.81895 8.21082 4.87518 11.375H4.33352M8.12518 1.625C8.6506 3.20667 8.91602 4.85333 8.91602 6.5" stroke="white" stroke-linecap="round" stroke-linejoin="round"/>
<path d="M1.625 8.66673V8.12506C3.20667 8.65048 4.85333 8.91589 6.5 8.91589M1.625 4.87506C4.78918 3.81883 8.21082 3.81883 11.375 4.87506M11.9167 11.9167L11.375 11.3751M9.85833 11.5917C10.318 11.5917 10.7589 11.4091 11.084 11.084C11.409 10.759 11.5917 10.3181 11.5917 9.85839C11.5917 9.39869 11.409 8.95781 11.084 8.63274C10.7589 8.30768 10.318 8.12506 9.85833 8.12506C9.39863 8.12506 8.95775 8.30768 8.63268 8.63274C8.30762 8.95781 8.125 9.39869 8.125 9.85839C8.125 10.3181 8.30762 10.759 8.63268 11.084C8.95775 11.4091 9.39863 11.5917 9.85833 11.5917Z" stroke="white" stroke-linecap="round" stroke-linejoin="round"/>
</svg>
