<svg width="20" height="11" viewBox="0 0 20 11" fill="none" xmlns="http://www.w3.org/2000/svg">
<path d="M8.78099 11C8.76099 10.8974 8.76099 10.7948 8.76099 10.6922V0.369403C8.76099 0 8.76099 0 9.12096 0C9.8009 0 9.8009 0 9.8009 0.697761V10.6306C9.8009 10.7537 9.8009 10.8769 9.7809 11H8.78099ZM20 6.03358H19.1801C19.0201 6.0541 18.9601 5.97201 18.9601 5.80784C19.0001 4.78172 18.8001 5.00746 19.74 4.96642C19.82 4.96642 19.92 4.98694 20 4.98694V6.03358ZM7.30112 5.5C7.30112 4.43284 7.32112 3.36567 7.30112 2.29851C7.30112 2.07276 7.36111 1.97015 7.60109 1.99067C7.78108 2.01119 7.96106 1.99067 8.14104 1.99067C8.28103 1.99067 8.36103 2.07276 8.34103 2.21642V8.68097C8.34103 9.02985 8.34103 9.02985 8.02106 9.02985C7.86107 9.02985 7.72108 9.00933 7.58109 9.02985C7.36111 9.05037 7.30112 8.94776 7.30112 8.74254C7.32112 7.65485 7.30112 6.58769 7.30112 5.5ZM11.2608 5.52052V8.72201C11.2608 8.94776 11.2008 9.05037 10.9808 9.02985C10.7808 9.00933 10.6008 9.00933 10.4208 9.02985C10.2809 9.02985 10.2009 8.94776 10.2209 8.8041V2.33955C10.2209 2.01119 10.2209 1.99067 10.5408 1.99067C11.2608 1.99067 11.2608 1.99067 11.2608 2.72948V5.52052ZM5.40129 5.54104V7.73694C5.40129 7.96269 5.34129 8.04478 5.14131 8.02425H4.62136C4.42137 8.04478 4.36138 7.94216 4.36138 7.75746V6.5056V3.3041C4.36138 3.05784 4.44137 2.97575 4.68135 2.97575C5.40129 2.99627 5.40129 2.97575 5.40129 3.73507V5.54104ZM12.7006 5.54104C12.7006 6.11567 12.7006 6.6903 12.7206 7.26493C12.7206 7.47015 12.6606 7.55224 12.4607 7.53172H11.9207C11.7207 7.55224 11.6607 7.44963 11.6607 7.26493V4.4944V3.71455C11.6607 3.55037 11.7207 3.48881 11.8807 3.48881H12.4607C12.6606 3.46828 12.7206 3.55037 12.7206 3.7556C12.7006 4.35075 12.7006 4.9459 12.7006 5.54104ZM16.0603 5.5V3.81716C16.0603 3.48881 16.0603 3.48881 16.4003 3.48881H16.8803C17.0403 3.46828 17.1003 3.55037 17.1003 3.71455V7.28545C17.1003 7.44963 17.0403 7.53172 16.8803 7.53172H16.3003C16.1203 7.55224 16.0603 7.47015 16.0603 7.28545V5.5ZM3.96141 5.5C3.96141 5.93097 3.94142 6.34142 3.96141 6.77239C3.96141 6.95709 3.90142 7.03918 3.70144 7.03918C3.52145 7.01866 3.32147 7.03918 3.12149 7.03918C3.0015 7.03918 2.92151 6.97761 2.92151 6.83396V4.18657C2.92151 4.04291 2.9815 3.98134 3.12149 3.98134H3.74143C3.90142 3.98134 3.96141 4.06343 3.96141 4.22761C3.94142 4.65858 3.96141 5.06903 3.96141 5.5ZM6.90115 5.52052C6.90115 5.95149 6.88116 6.36194 6.90115 6.79291C6.90115 6.95709 6.84116 7.03918 6.66118 7.03918C6.46119 7.01866 6.28121 7.01866 6.10122 7.03918C5.90124 7.03918 5.84125 6.95709 5.86125 6.77239V4.24813C5.84125 4.06343 5.90124 3.96082 6.10122 3.98134C6.28121 3.98134 6.46119 4.00187 6.64118 3.98134C6.84116 3.96082 6.90115 4.06343 6.90115 4.26866C6.88116 4.6791 6.90115 5.11007 6.90115 5.52052ZM14.1605 5.5V6.79291C14.1605 6.97761 14.1005 7.03918 13.9205 7.03918C13.7206 7.01866 13.5206 7.03918 13.3206 7.03918C13.1806 7.03918 13.1206 6.97761 13.1206 6.83396V4.16604C13.1206 4.04291 13.1806 3.98134 13.3006 3.98134H13.9605C14.1205 3.98134 14.1605 4.06343 14.1605 4.20709V5.5ZM17.5202 5.5V4.47388C17.5202 4.28918 17.5802 4.22761 17.7402 4.22761H18.3401C18.4801 4.22761 18.5601 4.26866 18.5601 4.43284V6.58769C18.5601 6.73134 18.4801 6.79291 18.3401 6.79291C18.1402 6.79291 17.9402 6.77239 17.7402 6.79291C17.5802 6.79291 17.5202 6.71082 17.5202 6.54664V5.5ZM2.50154 5.52052V6.3209C2.50154 6.48507 2.44155 6.54664 2.30156 6.54664C2.08158 6.52612 1.8816 6.52612 1.66162 6.54664C1.52163 6.54664 1.46163 6.48507 1.46163 6.34142V4.6791C1.46163 4.53545 1.52163 4.47388 1.64162 4.47388H2.30156C2.44155 4.47388 2.50154 4.55597 2.50154 4.69963V5.52052ZM15.6404 5.5C15.6404 5.76679 15.6404 6.01306 15.6604 6.27985C15.6604 6.46455 15.6004 6.54664 15.4204 6.54664C15.2204 6.52612 15.0204 6.52612 14.8205 6.54664C14.6605 6.54664 14.6205 6.46455 14.6205 6.3209V4.69963C14.6205 4.53545 14.6805 4.47388 14.8405 4.47388H15.4404C15.5804 4.47388 15.6604 4.55597 15.6604 4.69963C15.6404 4.96642 15.6404 5.23321 15.6404 5.5ZM1.04167 5.52052C1.04167 6.09515 1.12166 6.03358 0.521717 6.03358C-0.0582316 6.03358 0.00176311 6.09515 0.00176311 5.52052C0.00176311 4.90485 -0.0582316 4.98694 0.541716 4.98694C1.12166 4.96642 1.04167 4.92537 1.04167 5.52052Z" fill="white"/>
</svg>
