<svg width="18" height="17" viewBox="0 0 18 17" fill="none" xmlns="http://www.w3.org/2000/svg">
<path d="M8.19238 10.625C8.75597 10.625 9.29647 10.4011 9.69499 10.0026C10.0935 9.60409 10.3174 9.06359 10.3174 8.5C10.3174 7.93641 10.0935 7.39591 9.69499 6.9974C9.29647 6.59888 8.75597 6.375 8.19238 6.375C7.6288 6.375 7.0883 6.59888 6.68978 6.9974C6.29127 7.39591 6.06738 7.93641 6.06738 8.5C6.06738 9.06359 6.29127 9.60409 6.68978 10.0026C7.0883 10.4011 7.6288 10.625 8.19238 10.625Z" stroke="#E9E9E9" stroke-miterlimit="10" stroke-linecap="round" stroke-linejoin="round"/>
<path d="M1.10889 9.12343V7.87676C1.10889 7.1401 1.71097 6.53093 2.45472 6.53093C3.7368 6.53093 4.26097 5.62426 3.61639 4.51218C3.24805 3.87468 3.46764 3.04593 4.11222 2.6776L5.33764 1.97635C5.89722 1.64343 6.61972 1.84176 6.95264 2.40135L7.03055 2.53593C7.66805 3.64801 8.71639 3.64801 9.36097 2.53593L9.43889 2.40135C9.7718 1.84176 10.4943 1.64343 11.0539 1.97635L12.2793 2.6776C12.9239 3.04593 13.1435 3.87468 12.7751 4.51218C12.1306 5.62426 12.6547 6.53093 13.9368 6.53093C14.6735 6.53093 15.2826 7.13301 15.2826 7.87676V9.12343C15.2826 9.8601 14.6806 10.4693 13.9368 10.4693C12.6547 10.4693 12.1306 11.3759 12.7751 12.488C13.1435 13.1326 12.9239 13.9543 12.2793 14.3226L11.0539 15.0238C10.4943 15.3568 9.7718 15.1584 9.43889 14.5988L9.36097 14.4643C8.72347 13.3522 7.67514 13.3522 7.03055 14.4643L6.95264 14.5988C6.61972 15.1584 5.89722 15.3568 5.33764 15.0238L4.11222 14.3226C3.80346 14.1448 3.57784 13.8518 3.48488 13.5079C3.39192 13.1639 3.43922 12.7971 3.61639 12.488C4.26097 11.3759 3.7368 10.4693 2.45472 10.4693C1.71097 10.4693 1.10889 9.8601 1.10889 9.12343Z" stroke="#E9E9E9" stroke-miterlimit="10" stroke-linecap="round" stroke-linejoin="round"/>
</svg>
