<svg width="24" height="24" viewBox="0 0 24 24" fill="none" xmlns="http://www.w3.org/2000/svg">
<path d="M15.9302 10C16.4554 10.5332 16.7498 11.2516 16.7498 12C16.7498 12.7484 16.4554 13.4668 15.9302 14" stroke="white" stroke-width="0.8" stroke-miterlimit="10"/>
<path d="M18 8C18.5328 8.53135 18.9554 9.16259 19.2438 9.85755C19.5323 10.5525 19.6807 11.2976 19.6807 12.05C19.6807 12.8024 19.5323 13.5475 19.2438 14.2424C18.9554 14.9374 18.5328 15.5687 18 16.1" stroke="white" stroke-width="0.8" stroke-miterlimit="10"/>
<path d="M20 5.92993C20.7988 6.7261 21.4326 7.67211 21.8651 8.71374C22.2976 9.75536 22.5202 10.8721 22.5202 11.9999C22.5202 13.1278 22.2976 14.2445 21.8651 15.2861C21.4326 16.3277 20.7988 17.2738 20 18.0699" stroke="white" stroke-width="0.8" stroke-miterlimit="10"/>
<path d="M6.27 8.17993H1.5V15.8199H6.27V8.17993Z" stroke="white" stroke-width="0.8" stroke-miterlimit="10"/>
<path d="M13.91 3.40991V20.5899H12.24L6.27002 15.8199V8.17991L12.24 3.40991H13.91Z" stroke="white" stroke-width="0.8" stroke-miterlimit="10"/>
</svg>
